<?xml version="1.0" standalone="no"?><!DOCTYPE svg PUBLIC "-//W3C//DTD SVG 1.1//EN" "http://www.w3.org/Graphics/SVG/1.1/DTD/svg11.dtd"><svg t="1723974222165" class="icon" viewBox="0 0 1024 1024" version="1.1" xmlns="http://www.w3.org/2000/svg" p-id="9039" xmlns:xlink="http://www.w3.org/1999/xlink" width="200" height="200"><path d="M543.134476 112.176762l316.952381 149.162667A73.142857 73.142857 0 0 1 902.095238 327.509333v91.257905h-68.851809V694.125714H902.095238v133.36381a73.142857 73.142857 0 0 1-73.142857 73.142857H195.047619a73.142857 73.142857 0 0 1-73.142857-73.142857v-133.36381h68.827428V418.767238H121.904762v-91.257905a73.142857 73.142857 0 0 1 42.008381-66.169904l316.952381-149.162667a73.142857 73.142857 0 0 1 62.268952 0zM828.952381 767.292952H195.047619v60.220953h633.904762v-60.220953zM374.320762 418.767238h-110.445714v275.139048h110.421333V418.767238z m73.142857 0l-0.024381 275.139048h133.388191V418.767238h-133.36381zM512 178.371048L195.047619 327.509333v18.115048h633.904762v-18.115048L512 178.371048z m141.970286 515.535238h106.130285V418.767238h-106.105904l-0.024381 275.139048z" p-id="9040"></path></svg>