<?xml version="1.0" standalone="no"?><!DOCTYPE svg PUBLIC "-//W3C//DTD SVG 1.1//EN" "http://www.w3.org/Graphics/SVG/1.1/DTD/svg11.dtd"><svg t="1723974344712" class="icon" viewBox="0 0 1024 1024" version="1.1" xmlns="http://www.w3.org/2000/svg" p-id="9983" xmlns:xlink="http://www.w3.org/1999/xlink" width="200" height="200"><path d="M828.952381 121.904762a73.142857 73.142857 0 0 1 73.142857 73.142857v219.428571a73.142857 73.142857 0 0 1-73.142857 73.142858h-48.761905v341.333333a73.142857 73.142857 0 0 1-73.142857 73.142857H316.952381a73.142857 73.142857 0 0 1-73.142857-73.142857V487.619048H195.047619a73.142857 73.142857 0 0 1-73.142857-73.142858V195.047619a73.142857 73.142857 0 0 1 73.142857-73.142857h633.904762z m-121.904762 219.428571H316.952381v487.619048h390.095238V341.333333z m-147.748571 71.68l51.687619 51.687619L563.736381 512H633.904762v73.142857h-85.333333v48.761905H633.904762v73.142857h-85.333333v73.142857h-73.142858v-73.142857H390.095238v-73.142857h85.333333v-48.761905H390.095238v-73.142857h70.192762l-47.299048-47.299048 51.736381-51.687619L512 460.263619l47.299048-47.299048zM828.952381 195.047619H195.047619v219.428571h48.761905v-73.142857c0-3.023238 0.170667-5.973333 0.536381-8.899047A36.571429 36.571429 0 0 1 268.190476 268.190476h487.619048a36.571429 36.571429 0 0 1 23.868952 64.292572c0.341333 2.876952 0.512 5.851429 0.512 8.850285v73.142857h48.761905V195.047619z" p-id="9984"></path></svg>