<?xml version="1.0" standalone="no"?><!DOCTYPE svg PUBLIC "-//W3C//DTD SVG 1.1//EN" "http://www.w3.org/Graphics/SVG/1.1/DTD/svg11.dtd"><svg t="1723625854322" class="icon" viewBox="0 0 1024 1024" version="1.1" xmlns="http://www.w3.org/2000/svg" p-id="5232" xmlns:xlink="http://www.w3.org/1999/xlink" width="200" height="200"><path d="M512 0C230.4 0 0 227.2 0 512c0 281.6 230.4 512 512 512 284.8 0 512-227.2 512-512S796.8 0 512 0z m0 819.2c-28.8 0-51.2-22.4-51.2-51.2s22.4-51.2 51.2-51.2c28.8 0 51.2 22.4 51.2 51.2 3.2 28.8-22.4 51.2-51.2 51.2z m54.4-220.8c0 28.8-22.4 51.2-51.2 51.2-28.8 0-51.2-22.4-51.2-51.2V256c0-28.8 22.4-51.2 51.2-51.2 28.8 0 51.2 22.4 51.2 51.2v342.4z"  p-id="5233"></path></svg>