<?xml version="1.0" standalone="no"?><!DOCTYPE svg PUBLIC "-//W3C//DTD SVG 1.1//EN" "http://www.w3.org/Graphics/SVG/1.1/DTD/svg11.dtd"><svg t="1723974720164" class="icon" viewBox="0 0 1024 1024" version="1.1" xmlns="http://www.w3.org/2000/svg" p-id="11089" xmlns:xlink="http://www.w3.org/1999/xlink" width="200" height="200"><path d="M746.179048 236.836571l127.024762 76.214858A109.714286 109.714286 0 0 1 926.47619 407.137524V804.571429a109.714286 109.714286 0 0 1-109.714285 109.714285h-585.142857A109.714286 109.714286 0 0 1 121.904762 804.571429V407.137524a109.714286 109.714286 0 0 1 53.272381-94.110476l127.024762-76.190477 37.619809 62.70781-127.024762 76.214857A36.571429 36.571429 0 0 0 195.047619 407.161905V804.571429a36.571429 36.571429 0 0 0 36.571429 36.571428h585.142857A36.571429 36.571429 0 0 0 853.333333 804.571429V407.137524a36.571429 36.571429 0 0 0-17.749333-31.378286l-127.024762-76.214857 37.61981-62.70781zM524.190476 97.52381l146.285714 87.771428-62.293333 131.657143h-2.121143L646.095238 651.873524 524.190476 755.809524l-121.904762-103.936L442.294857 316.952381h-1.706667L377.904762 185.295238l146.285714-87.771428z m17.578667 219.428571h-35.181714l-36.864 308.540952 54.467047 46.421334 54.467048-46.421334L541.744762 316.952381zM524.190476 182.832762L472.502857 213.820952 486.765714 243.809524h75.093334l14.140952-29.891048L524.190476 182.857143z" p-id="11090"></path></svg>